Genre:Animation | Comedy | Family
Language:English
IMDb:http://www.imdb.com/title/tt0398286/
Source:Imagine Thx


Format : MPEG-4
Format profile : Base Media
Codec ID : isom
File size : 885 MiB
Duration : 1h 30mn
Overall bit rate : 1 364 Kbps
Movie name : Tangled 2010 TC H264 Feel-Free


Video
Format settings, CABAC : Yes
Format settings, ReFrames : 4 frames
Format settings, GOP : M=1, N=2
Codec ID : avc1
Codec ID/Info : Advanced Video Coding
Duration : 1h 30mn
Bit rate mode : Variable
Bit rate : 1 200 Kbps
Width : 720 pixels
Height : 384 pixels
Display aspect ratio : 1.875
Frame rate mode : Constant
Frame rate : 24.975 fps
Color space : YUV
Chroma subsampling : 4:2:0
Bit depth : 8 bits
Scan type : Progressive
Bits/(Pixel*Frame) : 0.174
Stream size : 783 MiB (88%)

Audio
ID : 2
Format : AAC
Format/Info : Advanced Audio Codec
Format version : Version 4
Format profile : LC
Codec ID : 40
Duration : 1h 30mn
Bit rate mode : Variable
Bit rate : 152 Kbps
Channel(s) : 2 channels
Channel positions : Front: L R
Sampling rate : 44.1 KHz
Stream size : 98.4 MiB (11%)


Plot:
The long-haired Princess Rapunzel has spent her entire life in a tower, but when she falls in love with a bandit who was passing by she must venture into the outside world for the first time to find him.

Screenshots:

 
http://www.leetleech.org/images/70375091702598769283.png
 
http://www.leetleech.org/images/20626618860415619636.png
 
http://www.leetleech.org/images/76959620869710783925.png


ENJOY!